<?xml version="1.0" encoding="UTF-8"?>
<!-- Generator: visioncortex VTracer 0.6.4 -->
<svg version="1.1" xmlns="http://www.w3.org/2000/svg" width="1426" height="1586">
<path d="M0 0 C9.31 2.42 18.64 4.66 28.03 6.73 C29.31 7.02 30.59 7.3 31.91 7.59 C34.6 8.19 37.28 8.78 39.97 9.38 C117.98 26.6 195.57 45.65 391.93 95.47 C397.81 97.01 403.7 98.54 409.58 100.08 C490.38 121.1 570.98 142.85 651.51 164.91 C654.52 165.73 657.53 166.55 660.54 167.38 C666.37 168.98 672.21 170.58 678.05 172.18 C678.86 172.4 679.68 172.63 680.52 172.86 C682.71 173.46 684.9 174.06 687.09 174.66 C688.26 174.99 689.43 175.31 690.63 175.64 C692.58 176.19 694.51 176.79 696.42 177.43 C694.81 183 692.21 187.87 689.55 192.99 C659.25 252.58 644.9 318.08 633.42 383.43 C633.26 384.37 633.09 385.31 632.92 386.28 C627.72 415.87 624.14 445.51 621.42 475.43 C621.33 476.45 621.23 477.47 621.14 478.52 C614.54 550.57 613.65 623.07 616.23 695.37 C616.27 696.36 616.3 697.36 616.34 698.39 C616.59 705.34 616.93 712.29 617.3 719.24 C617.39 720.79 617.47 722.35 617.55 723.9 C618.88 748.83 620.52 773.71 622.68 798.58 C622.88 800.88 623.08 803.19 623.28 805.49 C624.09 814.77 624.9 824.05 625.74 833.33 C631.46 896.45 632.21 960.23 618.42 1022.43 C618.18 1023.52 617.94 1024.61 617.69 1025.73 C611.18 1054.62 601.63 1082.46 589.42 1109.43 C589.01 1110.35 588.6 1111.26 588.18 1112.21 C566.37 1160.56 534.46 1203.77 498.42 1242.43 C497.82 1243.07 497.23 1243.72 496.61 1244.38 C478.45 1263.89 478.45 1263.89 469.36 1271.71 C467.47 1273.39 465.69 1275.13 463.92 1276.93 C460.26 1280.64 456.37 1284.03 452.42 1287.43 C451.29 1288.41 450.16 1289.39 449.04 1290.38 C445.8 1293.19 442.55 1296 439.31 1298.8 C438.12 1299.83 436.93 1300.86 435.74 1301.88 C428.02 1308.58 420.03 1314.87 411.88 1321.04 C408.13 1323.88 404.43 1326.77 400.73 1329.67 C391.87 1336.62 382.86 1343.31 373.67 1349.83 C372.22 1350.86 370.77 1351.9 369.31 1352.94 C344.47 1370.72 318.89 1387.64 292.98 1403.83 C290.2 1405.57 287.42 1407.32 284.65 1409.07 C271.4 1417.41 258.02 1425.53 244.57 1433.55 C241.42 1435.43 238.27 1437.32 235.13 1439.21 C213.48 1452.26 191.61 1464.92 169.7 1477.54 C164.28 1480.67 158.85 1483.8 153.42 1486.93 C151.26 1488.18 149.09 1489.43 146.92 1490.68 C145.85 1491.3 144.78 1491.92 143.67 1492.55 C133.92 1498.18 133.92 1498.18 130.67 1500.05 C128.51 1501.3 126.34 1502.55 124.18 1503.8 C118.74 1506.94 113.29 1510.08 107.85 1513.21 C94.34 1521 80.85 1528.83 67.39 1536.7 C62.4 1539.61 57.41 1542.52 52.42 1545.43 C50.42 1546.6 48.42 1547.76 46.42 1548.93 C34.42 1555.93 34.42 1555.93 31.42 1557.68 C29.43 1558.84 27.45 1560 25.46 1561.16 C20.23 1564.21 14.99 1567.26 9.75 1570.32 C8.66 1570.95 7.57 1571.59 6.45 1572.24 C4.36 1573.46 2.27 1574.68 0.17 1575.9 C-0.77 1576.45 -1.71 1577 -2.68 1577.57 C-3.51 1578.05 -4.34 1578.53 -5.19 1579.03 C-6.88 1580.02 -8.55 1581.04 -10.21 1582.08 C-13.37 1583.88 -14.97 1583.95 -18.58 1583.43 C-21.62 1582.18 -24.42 1580.58 -27.27 1578.93 C-28.13 1578.44 -28.99 1577.96 -29.88 1577.45 C-38.33 1572.65 -46.67 1567.67 -55.02 1562.69 C-63.21 1557.8 -71.47 1553.02 -79.77 1548.3 C-91.44 1541.66 -103.06 1534.93 -114.65 1528.14 C-119.58 1525.26 -124.52 1522.37 -129.45 1519.49 C-130.44 1518.92 -131.42 1518.34 -132.44 1517.75 C-139.81 1513.45 -147.19 1509.19 -154.58 1504.93 C-173.04 1494.29 -191.42 1483.53 -209.8 1472.75 C-217.39 1468.3 -224.98 1463.86 -232.58 1459.43 C-235.53 1457.71 -238.49 1455.98 -241.44 1454.26 C-243.62 1452.99 -245.8 1451.72 -247.98 1450.45 C-265.39 1440.31 -282.68 1429.99 -299.87 1419.48 C-301.58 1418.43 -303.29 1417.38 -305.01 1416.34 C-319.35 1407.59 -333.57 1398.7 -347.58 1389.43 C-349.12 1388.41 -349.12 1388.41 -350.69 1387.38 C-393.06 1359.38 -434.21 1329.81 -472.89 1296.87 C-474.57 1295.44 -476.26 1294.01 -477.95 1292.59 C-492.55 1280.27 -506.13 1266.97 -519.64 1253.49 C-520.28 1252.86 -520.91 1252.22 -521.57 1251.57 C-528.13 1245.04 -534.61 1238.51 -540.58 1231.43 C-541.62 1230.24 -542.67 1229.05 -543.72 1227.86 C-550.47 1220.16 -556.99 1212.34 -563.21 1204.21 C-564.12 1203.02 -565.04 1201.83 -565.96 1200.65 C-579.04 1183.82 -591.09 1165.99 -601.58 1147.43 C-602.03 1146.63 -602.48 1145.83 -602.95 1145 C-648.5 1064.02 -666.56 970 -660.78 877.54 C-660.73 876.85 -660.69 876.15 -660.65 875.44 C-659.59 858.38 -658.12 841.35 -656.66 824.32 C-654.2 795.56 -651.93 766.8 -650.2 737.99 C-650.12 736.68 -650.04 735.37 -649.96 734.01 C-649.47 725.82 -649.01 717.63 -648.58 709.43 C-648.53 708.49 -648.48 707.55 -648.42 706.58 C-647.55 690.44 -647.28 674.28 -647.05 658.11 C-647.01 655.38 -646.96 652.64 -646.92 649.9 C-646.5 624.09 -646.49 598.36 -647.39 572.55 C-647.43 571.28 -647.48 570.01 -647.52 568.7 C-650.51 483.3 -658.88 398.72 -678.58 315.43 C-678.75 314.72 -678.91 314.01 -679.09 313.28 C-689.51 269.36 -703.93 226.17 -724.84 186.07 C-727.58 180.75 -727.58 180.75 -727.58 177.43 C-715.1 173.38 -702.57 169.71 -689.88 166.4 C-688.1 165.94 -686.33 165.47 -684.56 165 C-680.79 164.01 -677.01 163.02 -673.24 162.04 C-667.19 160.46 -661.14 158.87 -655.1 157.28 C-648.8 155.63 -642.51 153.97 -636.21 152.32 C-622.71 148.78 -609.21 145.22 -595.72 141.65 C-594.84 141.42 -593.97 141.19 -593.07 140.95 C-589.54 140.02 -586.02 139.08 -582.5 138.15 C-535.23 125.63 -487.94 113.2 -440.64 100.8 C-434.7 99.25 -428.76 97.69 -422.83 96.13 C-338.33 73.96 -253.78 52.11 -34.75 0.91 C-32.66 0.45 -30.56 -0.03 -28.47 -0.52 C-27.25 -0.8 -26.03 -1.08 -24.77 -1.36 C-23.75 -1.6 -22.73 -1.84 -21.68 -2.08 C-13.84 -3.32 -7.56 -2.05 0 0 Z M-28.32 92.27 C-29.17 92.47 -30.02 92.67 -30.9 92.87 C-33.73 93.53 -36.56 94.19 -39.39 94.86 C-41.42 95.34 -43.46 95.81 -45.5 96.29 C-50.92 97.55 -56.34 98.83 -61.75 100.1 C-66.97 101.33 -72.18 102.54 -77.4 103.76 C-87.39 106.09 -97.37 108.44 -107.35 110.79 C-113.79 112.31 -120.23 113.82 -126.67 115.32 C-172.62 126.05 -218.45 137.25 -264.23 148.73 C-270.27 150.24 -276.31 151.75 -282.35 153.26 C-331.4 165.51 -380.37 178.03 -429.28 190.79 C-435.85 192.5 -442.41 194.21 -448.98 195.92 C-459.31 198.6 -469.63 201.29 -479.95 203.99 C-480.82 204.22 -481.69 204.45 -482.59 204.68 C-496.25 208.26 -509.92 211.84 -523.58 215.43 C-524.94 215.79 -524.94 215.79 -526.34 216.16 C-537.97 219.21 -549.59 222.28 -561.22 225.36 C-564.51 226.23 -567.81 227.1 -571.11 227.97 C-574.93 228.98 -578.75 229.99 -582.57 231.01 C-583.95 231.38 -585.34 231.74 -586.73 232.11 C-588.63 232.61 -590.52 233.11 -592.41 233.62 C-593.46 233.9 -594.52 234.18 -595.6 234.46 C-598.79 235.5 -601.62 236.86 -604.58 238.43 C-603.18 246.58 -600.94 254.46 -598.67 262.39 C-576.94 338.54 -567.62 416.52 -560.51 495.17 C-560.35 496.88 -560.2 498.59 -560.04 500.3 C-556.77 535.54 -556.25 570.94 -556.38 606.31 C-556.39 609.44 -556.4 612.57 -556.41 615.7 C-556.44 627 -556.48 638.3 -556.54 649.6 C-556.57 654.85 -556.58 660.1 -556.59 665.35 C-556.64 727.62 -562.03 790.11 -568.03 852.07 C-569.86 871.03 -570.82 889.75 -570.83 908.8 C-570.83 909.93 -570.83 911.05 -570.83 912.21 C-570.78 969.01 -560.78 1024.72 -536.58 1076.43 C-536.16 1077.32 -535.75 1078.22 -535.32 1079.14 C-525.43 1100.3 -513.34 1120.43 -498.87 1138.77 C-496.88 1141.32 -494.99 1143.94 -493.08 1146.55 C-485.22 1157.03 -476.39 1166.76 -467.58 1176.43 C-466.76 1177.34 -465.95 1178.25 -465.11 1179.18 C-455.82 1189.46 -446.25 1199.7 -435.65 1208.64 C-433.37 1210.61 -431.16 1212.66 -428.96 1214.72 C-423.58 1219.75 -418.11 1224.56 -412.37 1229.17 C-409.89 1231.18 -407.46 1233.23 -405.05 1235.31 C-398.25 1241.15 -391.2 1246.62 -384.05 1252.03 C-380.23 1254.92 -376.45 1257.86 -372.68 1260.82 C-365.1 1266.77 -357.43 1272.54 -349.53 1278.06 C-347.31 1279.61 -345.11 1281.17 -342.9 1282.73 C-331.91 1290.48 -320.82 1298.05 -309.58 1305.43 C-308.89 1305.88 -308.2 1306.34 -307.48 1306.81 C-287.15 1320.15 -266.3 1332.62 -245.36 1345 C-240.23 1348.04 -235.12 1351.1 -230.01 1354.17 C-224 1357.78 -217.98 1361.36 -211.95 1364.93 C-211.39 1365.26 -210.83 1365.6 -210.24 1365.94 C-200.6 1371.66 -190.93 1377.34 -181.25 1383 C-172.45 1388.15 -163.66 1393.34 -154.89 1398.55 C-144.97 1404.45 -134.99 1410.25 -124.99 1416 C-117.33 1420.41 -109.7 1424.88 -102.1 1429.38 C-94.59 1433.84 -87.05 1438.26 -79.52 1442.68 C-78.91 1443.03 -78.3 1443.39 -77.68 1443.76 C-74.58 1445.57 -71.47 1447.39 -68.37 1449.21 C-63.9 1451.83 -59.43 1454.44 -54.97 1457.06 C-51.87 1458.88 -48.77 1460.7 -45.66 1462.51 C-40.48 1465.53 -35.31 1468.57 -30.23 1471.75 C-29.06 1472.48 -29.06 1472.48 -27.86 1473.21 C-26.49 1474.07 -25.12 1474.94 -23.76 1475.83 C-20.84 1477.63 -18.75 1478.42 -15.3 1478.55 C-9.99 1476.95 -5.61 1474.25 -0.89 1471.37 C1.26 1470.08 3.41 1468.8 5.57 1467.52 C6.69 1466.84 7.81 1466.17 8.97 1465.48 C14.12 1462.41 19.33 1459.45 24.54 1456.49 C27.5 1454.81 30.46 1453.12 33.41 1451.43 C34 1451.1 34.59 1450.77 35.19 1450.42 C41.28 1446.94 47.35 1443.44 53.42 1439.93 C61.82 1435.08 70.23 1430.25 78.65 1425.44 C98.29 1414.24 117.88 1402.98 137.31 1391.41 C145.06 1386.81 152.85 1382.29 160.67 1377.8 C171.7 1371.47 182.6 1364.93 193.44 1358.27 C196.61 1356.31 199.79 1354.37 202.97 1352.42 C215.06 1345 227.12 1337.52 239.09 1329.91 C241.46 1328.4 243.84 1326.91 246.21 1325.42 C288.92 1298.56 330.65 1269.92 369.65 1237.88 C371.27 1236.56 372.89 1235.24 374.52 1233.93 C379.85 1229.61 385.02 1225.16 390.1 1220.54 C392.12 1218.7 394.17 1216.9 396.23 1215.12 C406.27 1206.32 415.85 1197.1 425.3 1187.68 C426.04 1186.94 426.04 1186.94 426.81 1186.18 C432.57 1180.44 438.16 1174.63 443.42 1168.43 C444.37 1167.35 445.32 1166.26 446.27 1165.18 C454.07 1156.24 461.38 1146.98 468.42 1137.43 C468.98 1136.67 469.54 1135.92 470.12 1135.14 C504.49 1088.41 525.67 1034.24 534.67 977.12 C534.9 975.69 534.9 975.69 535.13 974.24 C535.61 970.97 536.03 967.71 536.42 964.43 C536.51 963.71 536.6 962.98 536.69 962.24 C538.59 945.87 538.78 929.52 538.74 913.06 C538.73 910.9 538.73 908.73 538.73 906.56 C538.69 884.91 537.91 863.5 535.68 841.96 C528.48 771.79 524.93 701.72 525.05 631.18 C525.05 629.92 525.05 628.66 525.05 627.36 C525.12 588.02 525.3 548.6 527.77 509.32 C527.82 508.52 527.87 507.73 527.92 506.92 C531.26 454.86 537.61 402.84 546.42 351.43 C546.55 350.66 546.68 349.9 546.82 349.11 C550.3 328.66 554.97 308.55 559.98 288.43 C560.39 286.78 560.39 286.78 560.81 285.1 C563.78 273.24 566.85 261.44 570.62 249.8 C571.96 245.53 572.72 241.96 572.42 237.43 C553.12 231.74 533.65 226.68 514.2 221.55 C509.37 220.28 504.54 219 499.7 217.73 C491.77 215.64 483.84 213.55 475.91 211.46 C466.98 209.1 458.05 206.75 449.11 204.39 C372.4 184.12 295.56 164.3 170.04 133.91 C155.74 130.47 141.45 127.02 127.16 123.57 C69.93 109.72 69.93 109.72 12.64 96.13 C10.32 95.59 8.01 95.04 5.7 94.5 C2.65 93.78 -0.39 93.07 -3.44 92.36 C-4.29 92.16 -5.13 91.96 -6 91.75 C-6.78 91.57 -7.56 91.39 -8.36 91.21 C-9.01 91.06 -9.66 90.91 -10.34 90.75 C-16.65 89.85 -22.22 90.81 -28.32 92.27 Z " fill="#FEFEFE" transform="translate(727.578125,2.5703125)"/>
<path d="M0 0 C4.01 1.04 8.02 2.06 12.04 3.07 C12.86 3.28 13.69 3.49 14.54 3.71 C22.92 5.83 31.33 7.81 39.75 9.76 C41.26 10.11 42.78 10.46 44.29 10.82 C47.42 11.54 50.55 12.27 53.68 12.99 C101.93 24.18 150.02 35.97 198.09 47.86 C200.88 48.55 203.67 49.24 206.46 49.93 C245.5 59.58 284.49 69.42 323.42 79.49 C326.13 80.19 328.84 80.89 331.55 81.59 C335.77 82.68 339.99 83.77 344.21 84.87 C345.76 85.27 347.31 85.68 348.86 86.08 C350.99 86.63 353.11 87.18 355.23 87.73 C356.41 88.04 357.6 88.35 358.82 88.67 C361.63 89.47 364.27 90.42 366.96 91.57 C366.3 93.56 365.63 95.55 364.97 97.55 C364.75 98.2 364.53 98.85 364.31 99.52 C363.04 103.34 361.76 107.16 360.49 110.99 C357.57 119.72 354.66 128.46 351.76 137.19 C350.24 141.75 348.73 146.31 347.21 150.87 C346.48 153.06 345.75 155.25 345.03 157.45 C339.89 172.91 334.66 188.34 329.38 203.75 C324.84 217.03 320.33 230.32 315.85 243.63 C315.55 244.5 315.26 245.37 314.96 246.26 C313.47 250.69 311.97 255.12 310.48 259.55 C307.31 268.99 304.13 278.42 300.95 287.85 C300.64 288.78 300.33 289.7 300 290.65 C295.14 305.09 290.25 319.52 285.33 333.94 C278.08 355.22 270.89 376.52 263.71 397.82 C261.37 404.76 259.02 411.71 256.68 418.65 C256.25 419.93 256.25 419.93 255.81 421.23 C250.27 437.66 244.71 454.09 239.15 470.51 C238.73 471.75 238.3 472.99 237.87 474.28 C236.18 479.27 234.48 484.27 232.79 489.27 C228.13 503 223.48 516.74 218.83 530.48 C218.15 532.5 217.47 534.52 216.78 536.53 C211.15 553.17 205.52 569.82 199.9 586.46 C197.05 594.91 194.19 603.36 191.34 611.8 C191.09 612.53 190.84 613.26 190.59 614.02 C189.61 616.9 188.64 619.77 187.67 622.65 C184.98 630.59 182.29 638.54 179.62 646.49 C178.39 650.16 177.15 653.83 175.91 657.51 C175.37 659.11 174.83 660.72 174.29 662.32 C173.59 664.44 172.87 666.55 172.15 668.65 C171.77 669.79 171.39 670.92 171 672.09 C169.96 674.57 169.96 674.57 167.96 675.57 C159.73 652.96 151.65 630.29 143.62 607.61 C136.96 588.81 130.27 570.03 123.52 551.26 C116.38 531.38 109.31 511.48 102.27 491.57 C102.03 490.87 101.78 490.18 101.53 489.46 C99.58 483.95 97.63 478.43 95.68 472.92 C91.39 460.78 87.09 448.64 82.77 436.51 C82.46 435.64 82.16 434.77 81.84 433.88 C77.82 422.57 73.78 411.27 69.74 399.96 C69.52 399.34 69.3 398.71 69.06 398.06 C66.64 391.27 64.21 384.47 61.78 377.68 C59.85 372.28 57.92 366.87 55.99 361.46 C55.01 358.72 54.03 355.97 53.04 353.23 C52.49 351.67 51.93 350.11 51.37 348.55 C51.12 347.86 50.87 347.17 50.62 346.45 C48.96 341.8 48.96 341.8 48.96 339.57 C5.73 339.57 -37.5 339.57 -82.04 339.57 C-83.53 345.01 -83.53 345.01 -85.04 350.57 C-86.01 353.48 -87 356.37 -88.05 359.25 C-88.48 360.44 -88.48 360.44 -88.92 361.65 C-89.53 363.36 -90.14 365.06 -90.76 366.77 C-91.76 369.53 -92.75 372.28 -93.74 375.04 C-94.79 377.96 -95.83 380.87 -96.88 383.78 C-100.2 393 -103.48 402.23 -106.76 411.46 C-112.72 428.25 -118.7 445.02 -124.7 461.8 C-131.69 481.35 -138.65 500.91 -145.57 520.49 C-151.78 538.05 -158.04 555.59 -164.31 573.12 C-170.28 589.8 -176.2 606.49 -182.1 623.19 C-188.29 640.7 -194.58 658.16 -201.04 675.57 C-203.91 674.13 -203.94 672.49 -204.95 669.47 C-205.51 667.82 -205.51 667.82 -206.09 666.13 C-206.49 664.91 -206.89 663.69 -207.31 662.43 C-207.74 661.15 -208.17 659.86 -208.61 658.58 C-209.54 655.81 -210.47 653.03 -211.39 650.26 C-212.87 645.84 -214.35 641.42 -215.83 637 C-217.63 631.65 -219.43 626.29 -221.23 620.94 C-224.3 611.76 -227.39 602.59 -230.5 593.42 C-230.72 592.78 -230.94 592.13 -231.16 591.47 C-232.25 588.26 -233.34 585.05 -234.43 581.84 C-235.74 577.98 -237.05 574.12 -238.35 570.26 C-244.47 552.21 -250.59 534.17 -256.71 516.12 C-262.95 497.73 -269.19 479.34 -275.42 460.94 C-275.74 459.98 -275.74 459.98 -276.08 458.99 C-279.62 448.53 -283.16 438.06 -286.71 427.6 C-290.03 417.8 -293.35 408 -296.67 398.19 C-296.88 397.55 -297.1 396.9 -297.33 396.24 C-304.09 376.27 -310.86 356.3 -317.64 336.33 C-324.35 316.55 -331.05 296.77 -337.74 276.99 C-344.72 256.39 -351.7 235.78 -358.69 215.18 C-363.37 201.41 -368.03 187.64 -372.69 173.86 C-373.18 172.43 -373.66 171 -374.14 169.58 C-378.02 158.12 -378.02 158.12 -379.9 152.56 C-386.46 133.14 -386.46 133.14 -393.1 113.75 C-393.39 112.89 -393.69 112.04 -393.99 111.16 C-395.29 107.4 -396.59 103.64 -397.89 99.88 C-398.32 98.64 -398.75 97.41 -399.19 96.14 C-399.55 95.09 -399.91 94.05 -400.29 92.98 C-401.04 90.57 -401.04 90.57 -401.04 88.57 C-371.45 80.64 -341.74 73.2 -312 65.86 C-308.24 64.93 -304.47 64 -300.71 63.07 C-265.8 54.43 -230.88 45.86 -195.92 37.44 C-185.65 34.96 -175.38 32.46 -165.12 29.95 C-158.47 28.32 -151.82 26.69 -145.17 25.07 C-144.35 24.87 -143.53 24.67 -142.69 24.46 C-123.97 19.89 -105.24 15.35 -86.47 10.95 C-85.68 10.76 -84.9 10.58 -84.09 10.39 C-76.58 8.63 -69.08 6.87 -61.57 5.13 C-59.52 4.65 -57.46 4.17 -55.41 3.69 C-52.94 3.12 -50.47 2.55 -48 1.98 C-42.19 0.62 -36.52 -0.9 -30.82 -2.7 C-19.95 -5.8 -10.64 -2.77 0 0 Z M-83.04 145.57 C-83.04 179.56 -83.04 213.55 -83.04 248.57 C-80.5 249.84 -78.75 249.69 -75.91 249.7 C-74.82 249.7 -73.74 249.7 -72.62 249.7 C-71.42 249.7 -70.22 249.7 -68.99 249.7 C-67.73 249.7 -66.47 249.7 -65.18 249.7 C-61.73 249.71 -58.27 249.71 -54.82 249.7 C-51.21 249.7 -47.61 249.7 -44 249.7 C-37.94 249.71 -31.89 249.7 -25.83 249.7 C-18.82 249.69 -11.81 249.7 -4.79 249.7 C1.22 249.71 7.23 249.71 13.24 249.7 C16.84 249.7 20.43 249.7 24.02 249.71 C28.03 249.71 32.03 249.7 36.04 249.7 C37.24 249.7 38.43 249.7 39.67 249.7 C40.75 249.7 41.84 249.7 42.96 249.7 C43.9 249.7 44.85 249.7 45.83 249.69 C47.94 249.81 47.94 249.81 48.96 248.57 C49.05 247.23 49.08 245.88 49.08 244.54 C49.08 243.67 49.08 242.81 49.08 241.91 C49.08 240.95 49.08 239.99 49.07 239 C49.07 237.98 49.07 236.96 49.07 235.91 C49.07 232.58 49.06 229.26 49.06 225.94 C49.06 223.9 49.05 221.85 49.05 219.81 C49.05 212.21 49.03 204.61 49.02 197.01 C49 180.03 48.98 163.06 48.96 145.57 C5.4 145.57 -38.16 145.57 -83.04 145.57 Z " fill="#FEFEFE" transform="translate(734.0406074523926,177.43109321594238)"/>
<path d="M0 0 C1.64 2.46 2.49 4.09 3.41 6.8 C3.67 7.58 3.93 8.35 4.21 9.15 C4.49 10 4.78 10.86 5.07 11.73 C5.38 12.65 5.69 13.56 6.01 14.5 C7.05 17.58 8.09 20.66 9.12 23.75 C9.87 25.96 10.62 28.17 11.37 30.38 C13.01 35.25 14.66 40.12 16.3 45 C19.15 53.45 22.01 61.91 24.87 70.36 C25.88 73.36 26.9 76.36 27.91 79.37 C28.17 80.12 28.42 80.87 28.68 81.64 C30.5 87.01 32.31 92.38 34.13 97.76 C39.94 114.97 45.77 132.18 51.62 149.38 C58.06 168.28 64.47 187.2 70.88 206.12 C72.76 211.69 74.64 217.25 76.52 222.81 C76.75 223.49 76.98 224.18 77.22 224.88 C81.99 238.99 86.78 253.09 91.56 267.19 C98.22 286.79 104.86 306.39 111.5 326 C118.16 345.67 124.83 365.34 131.5 385 C138.13 404.54 144.76 424.08 151.38 443.62 C151.81 444.92 152.25 446.22 152.69 447.52 C156.92 460 161.15 472.48 165.37 484.96 C167.17 490.26 168.96 495.56 170.76 500.86 C171.86 504.12 172.96 507.37 174.06 510.62 C178.72 524.4 183.4 538.17 188.1 551.94 C188.9 554.29 189.71 556.65 190.51 559.01 C192.01 563.41 193.52 567.81 195.02 572.2 C195.69 574.15 196.35 576.1 197.02 578.05 C197.32 578.93 197.63 579.82 197.94 580.73 C198.22 581.54 198.49 582.34 198.77 583.17 C199.01 583.86 199.25 584.56 199.5 585.28 C200 587 200 587 200 589 C247.52 589 295.04 589 344 589 C345.49 583.56 345.49 583.56 347 578 C347.68 575.9 348.38 573.81 349.12 571.73 C349.51 570.62 349.91 569.51 350.31 568.37 C350.73 567.21 351.15 566.04 351.58 564.84 C352.03 563.58 352.47 562.32 352.92 561.06 C354.11 557.71 355.31 554.37 356.51 551.02 C357.76 547.5 359.01 543.99 360.27 540.47 C362.5 534.19 364.74 527.92 366.98 521.64 C369.02 515.94 371.05 510.24 373.09 504.54 C376.38 495.3 379.69 486.06 382.99 476.82 C386.52 466.96 390.04 457.11 393.56 447.25 C393.98 446.08 394.4 444.92 394.83 443.72 C401.68 424.53 408.5 405.33 415.31 386.12 C423.17 363.97 431.05 341.83 438.96 319.7 C442.49 309.83 446.02 299.95 449.55 290.08 C451.07 285.81 452.6 281.54 454.13 277.27 C458.44 265.19 462.75 253.1 467 241 C467.99 241 468.98 241 470 241 C470.2 241.56 470.39 242.12 470.59 242.69 C479.73 268.76 488.9 294.82 498.25 320.81 C505.48 340.92 512.63 361.04 519.75 381.19 C521.71 386.73 523.67 392.28 525.63 397.82 C525.86 398.49 526.1 399.15 526.34 399.84 C530.44 411.42 534.55 423 538.69 434.56 C538.98 435.37 539.27 436.18 539.57 437.02 C541.06 441.19 542.55 445.37 544.05 449.55 C547.89 460.28 551.73 471.01 555.56 481.75 C555.98 482.91 556.39 484.06 556.82 485.26 C564.83 507.68 572.8 530.12 580.75 552.57 C580.98 553.21 581.21 553.84 581.44 554.5 C582.49 557.46 583.54 560.43 584.59 563.39 C585.15 564.98 585.15 564.98 585.73 566.61 C586.1 567.64 586.46 568.67 586.84 569.73 C587.68 572.11 588.54 574.48 589.4 576.85 C589.63 577.49 589.86 578.13 590.1 578.79 C590.75 580.59 591.41 582.39 592.07 584.2 C593 587 593 587 593 589 C640.52 589 688.04 589 737 589 C738.49 583.56 738.49 583.56 740 578 C741.05 574.7 742.13 571.41 743.24 568.13 C743.55 567.21 743.86 566.29 744.18 565.34 C745.19 562.32 746.22 559.3 747.24 556.27 C747.96 554.12 748.69 551.97 749.41 549.82 C750.93 545.3 752.46 540.79 753.98 536.27 C755.89 530.61 757.8 524.96 759.71 519.3 C767.15 497.21 774.62 475.13 782.17 453.08 C787.89 436.36 793.55 419.61 799.19 402.86 C802.02 394.49 804.84 386.12 807.67 377.75 C807.95 376.92 808.22 376.1 808.51 375.25 C813.2 361.37 817.9 347.49 822.62 333.62 C829.4 313.72 836.14 293.8 842.88 273.88 C850.11 252.45 857.36 231.04 864.62 209.62 C871.15 190.4 877.67 171.16 884.18 151.93 C885.1 149.21 886.02 146.49 886.94 143.77 C891.2 131.2 895.45 118.63 899.7 106.06 C901.64 100.31 903.59 94.56 905.53 88.81 C906.9 84.76 908.28 80.7 909.65 76.64 C910.69 73.54 911.74 70.45 912.79 67.35 C913.16 66.26 913.53 65.17 913.91 64.04 C916.18 57.33 918.55 50.65 921 44 C921.33 44 921.66 44 922 44 C922.01 44.77 922.02 45.54 922.02 46.33 C922.88 126.02 926.16 205.28 933.63 284.64 C933.7 285.44 933.78 286.24 933.85 287.07 C934.21 290.81 934.56 294.56 934.92 298.31 C936.14 311.09 937.15 323.79 937.2 336.63 C937.21 337.78 937.22 338.93 937.22 340.11 C937.24 343.78 937.25 347.45 937.25 351.12 C937.25 353.01 937.25 353.01 937.25 354.93 C937.24 372.8 937.02 390.34 934 408 C933.83 409.04 933.66 410.08 933.48 411.15 C921.5 481.64 882.53 545.75 828.21 592.07 C825.89 594.1 823.63 596.19 821.37 598.3 C816 603.32 810.54 608.12 804.8 612.73 C802.26 614.79 799.76 616.9 797.27 619.03 C790.92 624.47 784.42 629.65 777.75 634.68 C775.9 636.07 774.06 637.47 772.22 638.87 C757 650.4 741.33 661.24 725.44 671.81 C724.66 672.33 723.88 672.85 723.07 673.39 C709.86 682.18 696.55 690.74 683 699 C681.92 699.66 680.84 700.32 679.72 701 C673.27 704.93 666.81 708.85 660.35 712.76 C656.23 715.25 652.12 717.75 648.02 720.26 C634.97 728.22 621.85 736.06 608.65 743.76 C600.86 748.31 593.1 752.91 585.38 757.56 C574.08 764.36 562.75 771.08 551.41 777.8 C544.95 781.62 538.5 785.45 532.04 789.29 C530 790.5 527.96 791.71 525.92 792.92 C520.13 796.36 514.33 799.8 508.54 803.26 C502.44 806.89 496.33 810.52 490.2 814.12 C488.03 815.4 485.86 816.68 483.69 817.97 C480.51 819.85 477.32 821.71 474.12 823.56 C473.17 824.13 472.22 824.7 471.24 825.28 C470.36 825.79 469.48 826.29 468.57 826.82 C467.42 827.49 467.42 827.49 466.25 828.17 C463.34 829.24 461.94 828.95 459 828 C457.05 827.05 455.14 826.01 453.27 824.93 C452.15 824.29 451.03 823.65 449.88 822.99 C448.67 822.28 447.46 821.58 446.25 820.88 C444.99 820.15 443.73 819.42 442.47 818.7 C433.35 813.43 424.32 808.03 415.3 802.58 C406.77 797.43 398.15 792.44 389.51 787.48 C381.82 783.06 374.16 778.58 366.53 774.05 C361.38 771 356.23 767.96 351.06 764.94 C350.16 764.41 350.16 764.41 349.24 763.87 C348.01 763.15 346.78 762.44 345.55 761.72 C334.81 755.43 324.11 749.08 313.45 742.66 C306.17 738.28 298.86 733.98 291.52 729.7 C277.16 721.31 262.91 712.74 248.73 704.06 C246.98 702.99 245.24 701.92 243.49 700.86 C231.56 693.59 219.67 686.29 208.12 678.43 C205.53 676.69 202.93 674.97 200.32 673.26 C189.29 665.99 178.49 658.57 168.01 650.53 C165.02 648.26 161.98 646.05 158.94 643.84 C150.69 637.83 142.67 631.6 134.79 625.1 C131.12 622.08 127.38 619.16 123.62 616.25 C117.84 611.75 112.4 606.96 107 602 C105.67 600.83 104.34 599.66 103 598.5 C94.57 591.14 86.4 583.59 78.49 575.67 C76.94 574.13 75.39 572.59 73.83 571.06 C67.44 564.7 61.63 558.06 56 551 C55.05 549.89 54.1 548.78 53.14 547.68 C12.07 500.66 -10.55 440.01 -14 378 C-14.06 376.89 -14.06 376.89 -14.13 375.75 C-16.33 333.84 -11.32 291.9 -7.77 250.2 C-5.3 221.16 -3.37 192.11 -2 163 C-1.94 161.76 -1.88 160.53 -1.82 159.25 C0.63 106.2 0.22 53.1 0 0 Z " fill="#FEFEFE" transform="translate(249,560)"/>
</svg>
